<svg xmlns="http://www.w3.org/2000/svg"><symbol id="cd" viewBox="0 0 72 72"><circle cx="36" cy="36" r="3" fill="#fff"/><path fill="#fff" d="M36 19.5A16.5 16.5 0 1 0 52.5 36 16.5 16.5 0 0 0 36 19.5zm0 21.3a4.8 4.8 0 1 1 4.8-4.8 4.9 4.9 0 0 1-4.8 4.8z"/><path fill="#fff" d="M36 15.5A20.5 20.5 0 1 0 56.5 36 20.5 20.5 0 0 0 36 15.5zm0 39.2A18.7 18.7 0 1 1 54.7 36 18.7 18.7 0 0 1 36 54.7z"/><path fill="#fff" d="M57.8 13.1a1.1 1.1 0 0 1 1.1 1.1v43.6a1.1 1.1 0 0 1-1.1 1.1H14.2a1.1 1.1 0 0 1-1.1-1.1V14.2a1.1 1.1 0 0 1 1.1-1.1h43.6m0-2H14.2a3.1 3.1 0 0 0-3.1 3.1v43.6a3.1 3.1 0 0 0 3.1 3.1h43.6a3.1 3.1 0 0 0 3.1-3.1V14.2a3.1 3.1 0 0 0-3.1-3.1z"/></symbol><symbol id="merch" viewBox="0 0 72 72"><path fill="#fff" d="M54.7 18.8a1.1 1.1 0 0 1 1.1 1.1v37.4a1.1 1.1 0 0 1-1.1 1.1H17.3a1.1 1.1 0 0 1-1.1-1.1V19.9a1.1 1.1 0 0 1 1.1-1.1h37.4m0-2H17.3a3.1 3.1 0 0 0-3.1 3.1v37.4a3.1 3.1 0 0 0 3.1 3.1h37.4a3.1 3.1 0 0 0 3.1-3.1V19.9a3.1 3.1 0 0 0-3.1-3.1z"/><circle cx="48.7" cy="25.5" r="2.9" fill="#fff"/><circle cx="23.7" cy="25.5" r="2.9" fill="#fff"/><path fill="none" stroke="#fff" stroke-miterlimit="10" stroke-width="2" d="M23.7 25.5s12.2-28.6 25 0"/></symbol><symbol id="vinyl" viewBox="0 0 72 72"><circle cx="45.6" cy="36" r="3.2" fill="#fff"/><path fill="#fff" d="M45.6 17.7A18.3 18.3 0 1 0 63.9 36a18.3 18.3 0 0 0-18.3-18.3zm0 25.9a7.6 7.6 0 1 1 7.6-7.6 7.6 7.6 0 0 1-7.6 7.6z"/><path fill="#fff" d="M8.9 13.8h36.7v44.4H8.9z"/></symbol><symbol id="check" viewBox="0 0 72 72"><path fill="#fff" d="M48.1 15.9L30.4 46.5a1 1 0 0 1-1.7 0l-4.8-8.2-.2-.4a2.1 2.1 0 0 0-1.9-1.1h-3.6a.9.9 0 0 0-.8 1.4l5.7 9.8 5 8.7a1.7 1.7 0 0 0 2.9 0l5-8.7 18.6-32.2a.9.9 0 0 0-.8-1.4h-3.6a2.1 2.1 0 0 0-1.9 1.1z"/></symbol><symbol id="cross" viewBox="0 0 72 72"><path fill="none" stroke="#fff" stroke-linecap="round" stroke-miterlimit="10" stroke-width="6" d="M18.8 18.8l34.4 34.4m0-34.4L18.8 53.2"/></symbol><symbol id="l-arrow" viewBox="0 0 72 72"><path fill="#fff" d="M53.1 45.9l-14.4-8.3a1.9 1.9 0 0 1 0-3.2l14.4-8.3.8-.4a3.9 3.9 0 0 0 1.8-3.3v-6.3a1.6 1.6 0 0 0-2.4-1.5L36 24.6l-15.2 8.8a3 3 0 0 0 0 5.2L36 47.4l17.3 10a1.6 1.6 0 0 0 2.4-1.5v-6.3a3.9 3.9 0 0 0-1.8-3.3z"/></symbol><symbol id="r-arrow" viewBox="0 0 72 72"><path fill="#fff" d="M20.4 26.1l14.4 8.3a1.9 1.9 0 0 1 0 3.2l-14.4 8.3-.8.4a3.9 3.9 0 0 0-1.8 3.3v6.3a1.6 1.6 0 0 0 2.4 1.5l17.3-10 15.2-8.8a3 3 0 0 0 0-5.2l-15.2-8.8-17.3-10a1.6 1.6 0 0 0-2.4 1.5v6.3a3.9 3.9 0 0 0 1.8 3.3z"/></symbol><symbol id="search" viewBox="0 0 72 72"><path fill="none" stroke="#fff" stroke-linecap="round" stroke-miterlimit="10" stroke-width="6" d="M39.3 39.5l13.9 13.9"/><circle cx="30.2" cy="30" r="11.3" fill="none" stroke="#fff" stroke-linecap="round" stroke-miterlimit="10" stroke-width="6"/></symbol><symbol id="user" viewBox="0 0 72 72"><circle cx="36" cy="23.9" r="11.3" fill="#fff"/><path fill="#fff" d="M29.8 39.6h12.4a16.6 16.6 0 0 1 16.6 16.6 3.2 3.2 0 0 1-3.2 3.2H16.4a3.2 3.2 0 0 1-3.2-3.2 16.6 16.6 0 0 1 16.6-16.6z"/></symbol></svg>