<svg xmlns="http://www.w3.org/2000/svg"><symbol id="merch" viewBox="0 0 72 72"><path fill="#fff" d="M54.7 18.8a1.1 1.1 0 0 1 1.1 1.1v37.4a1.1 1.1 0 0 1-1.1 1.1H17.3a1.1 1.1 0 0 1-1.1-1.1V19.9a1.1 1.1 0 0 1 1.1-1.1h37.4m0-2H17.3a3.1 3.1 0 0 0-3.1 3.1v37.4a3.1 3.1 0 0 0 3.1 3.1h37.4a3.1 3.1 0 0 0 3.1-3.1V19.9a3.1 3.1 0 0 0-3.1-3.1z"/><circle cx="48.7" cy="25.5" r="2.9" fill="#fff"/><circle cx="23.7" cy="25.5" r="2.9" fill="#fff"/><path fill="none" stroke="#fff" stroke-miterlimit="10" stroke-width="2" d="M23.7 25.5s12.2-28.6 25 0"/></symbol><symbol id="vinyl" viewBox="0 0 72 72"><circle cx="45.6" cy="36" r="3.2" fill="#fff"/><path fill="#fff" d="M45.6 17.7A18.3 18.3 0 1 0 63.9 36a18.3 18.3 0 0 0-18.3-18.3zm0 25.9a7.6 7.6 0 1 1 7.6-7.6 7.6 7.6 0 0 1-7.6 7.6z"/><path fill="#fff" d="M8.9 13.8h36.7v44.4H8.9z"/></symbol><symbol id="cd" viewBox="0 0 72 72"><circle cx="36" cy="36" r="3" fill="#fff"/><path fill="#fff" d="M36 19.5A16.5 16.5 0 1 0 52.5 36 16.5 16.5 0 0 0 36 19.5zm0 21.3a4.8 4.8 0 1 1 4.8-4.8 4.9 4.9 0 0 1-4.8 4.8z"/><path fill="#fff" d="M36 15.5A20.5 20.5 0 1 0 56.5 36 20.5 20.5 0 0 0 36 15.5zm0 39.2A18.7 18.7 0 1 1 54.7 36 18.7 18.7 0 0 1 36 54.7z"/><path fill="#fff" d="M57.8 13.1a1.1 1.1 0 0 1 1.1 1.1v43.6a1.1 1.1 0 0 1-1.1 1.1H14.2a1.1 1.1 0 0 1-1.1-1.1V14.2a1.1 1.1 0 0 1 1.1-1.1h43.6m0-2H14.2a3.1 3.1 0 0 0-3.1 3.1v43.6a3.1 3.1 0 0 0 3.1 3.1h43.6a3.1 3.1 0 0 0 3.1-3.1V14.2a3.1 3.1 0 0 0-3.1-3.1z"/></symbol><symbol id="check" viewBox="0 0 72 72"><path fill="#fff" d="M56.2 2.5l-29.5 51a1.6 1.6 0 0 1-2.9 0l-8-13.7-.4-.7a3.5 3.5 0 0 0-3.1-1.8h-6a1.6 1.6 0 0 0-1.4 2.4l9.5 16.4 8.4 14.5a2.8 2.8 0 0 0 4.9 0l8.4-14.5 31-53.8A1.6 1.6 0 0 0 65.7 0h-6a3.5 3.5 0 0 0-3.1 1.8z"/></symbol><symbol id="cross" viewBox="0 0 72 72"><path fill="none" stroke="#fff" stroke-linecap="round" stroke-miterlimit="10" stroke-width="10.19" d="M6.8 6.7l58.4 58.4m0-58.4L6.8 65.1"/></symbol><symbol id="r-arrow" viewBox="0 0 72 72"><path fill="#fff" d="M9.9 19.5L34 33.4a3 3 0 0 1 0 5.2L9.9 52.5l-1.2.7a6.3 6.3 0 0 0-3.1 5.4v10.7a2.7 2.7 0 0 0 4.1 2.3L38.5 55l25.4-14.7a5 5 0 0 0 0-8.6L38.5 17 9.7.4a2.7 2.7 0 0 0-4.1 2.3v10.7a6.3 6.3 0 0 0 3.1 5.4z"/></symbol><symbol id="search" viewBox="0 0 72 72"><path fill="none" stroke="#fff" stroke-linecap="round" stroke-miterlimit="10" stroke-width="6" d="M39.3 39.5l13.9 13.9"/><circle cx="30.2" cy="30" r="11.3" fill="none" stroke="#fff" stroke-linecap="round" stroke-miterlimit="10" stroke-width="6"/></symbol><symbol id="user" viewBox="0 0 72 72"><circle cx="36" cy="23.9" r="11.3" fill="#fff"/><path fill="#fff" d="M29.8 39.6h12.4a16.6 16.6 0 0 1 16.6 16.6 3.2 3.2 0 0 1-3.2 3.2H16.4a3.2 3.2 0 0 1-3.2-3.2 16.6 16.6 0 0 1 16.6-16.6z"/></symbol><symbol id="l-arrow" viewBox="0 0 72 72"><path fill="#fff" d="M62.1 52.5L38 38.6a3 3 0 0 1 0-5.2l24.1-13.9 1.2-.7a6.3 6.3 0 0 0 3.1-5.4V2.7A2.7 2.7 0 0 0 62.3.4L33.5 17 8.1 31.7a5 5 0 0 0 0 8.6L33.5 55l28.8 16.6a2.7 2.7 0 0 0 4.1-2.3V58.6a6.3 6.3 0 0 0-3.1-5.4z"/></symbol></svg>